<mxfile host="app.diagrams.net" agent="Mozilla/5.0 (Windows NT 10.0; Win64; x64) AppleWebKit/537.36 (KHTML, like Gecko) Chrome/135.0.0.0 Safari/537.36" version="26.2.14">
  <diagram name="Page-1" id="23m65T4mW5vEoM5LXxEj">
    <mxGraphModel dx="595" dy="802" grid="1" gridSize="10" guides="1" tooltips="1" connect="1" arrows="1" fold="1" page="1" pageScale="1" pageWidth="850" pageHeight="1100" math="0" shadow="0">
      <root>
        <mxCell id="0" />
        <mxCell id="1" parent="0" />
        <mxCell id="m6D-yFciQiQcWru1Qn-r-1" value="" style="ellipse;html=1;shape=endState;fillColor=#000000;strokeColor=#000000;" parent="1" vertex="1">
          <mxGeometry x="582.5" y="770" width="30" height="30" as="geometry" />
        </mxCell>
        <mxCell id="m6D-yFciQiQcWru1Qn-r-13" value="" style="edgeStyle=orthogonalEdgeStyle;rounded=0;orthogonalLoop=1;jettySize=auto;html=1;" parent="1" source="m6D-yFciQiQcWru1Qn-r-2" target="m6D-yFciQiQcWru1Qn-r-4" edge="1">
          <mxGeometry relative="1" as="geometry" />
        </mxCell>
        <mxCell id="m6D-yFciQiQcWru1Qn-r-2" value="" style="ellipse;html=1;shape=endState;fillColor=#000000;strokeColor=none;" parent="1" vertex="1">
          <mxGeometry x="320" y="240" width="30" height="30" as="geometry" />
        </mxCell>
        <mxCell id="m6D-yFciQiQcWru1Qn-r-15" value="" style="edgeStyle=orthogonalEdgeStyle;rounded=0;orthogonalLoop=1;jettySize=auto;html=1;" parent="1" source="m6D-yFciQiQcWru1Qn-r-4" target="m6D-yFciQiQcWru1Qn-r-12" edge="1">
          <mxGeometry relative="1" as="geometry" />
        </mxCell>
        <mxCell id="m6D-yFciQiQcWru1Qn-r-4" value="Запрос списка туристов по маршруту с тренером" style="rounded=1;whiteSpace=wrap;html=1;" parent="1" vertex="1">
          <mxGeometry x="267.5" y="290" width="135" height="60" as="geometry" />
        </mxCell>
        <mxCell id="m6D-yFciQiQcWru1Qn-r-30" style="edgeStyle=orthogonalEdgeStyle;rounded=0;orthogonalLoop=1;jettySize=auto;html=1;" parent="1" source="m6D-yFciQiQcWru1Qn-r-5" edge="1">
          <mxGeometry relative="1" as="geometry">
            <mxPoint x="280" y="550" as="targetPoint" />
            <Array as="points">
              <mxPoint x="258" y="530" />
              <mxPoint x="280" y="530" />
            </Array>
          </mxGeometry>
        </mxCell>
        <mxCell id="m6D-yFciQiQcWru1Qn-r-5" value="Выбор группы" style="rounded=1;whiteSpace=wrap;html=1;" parent="1" vertex="1">
          <mxGeometry x="190" y="460" width="135" height="60" as="geometry" />
        </mxCell>
        <mxCell id="m6D-yFciQiQcWru1Qn-r-31" style="edgeStyle=orthogonalEdgeStyle;rounded=0;orthogonalLoop=1;jettySize=auto;html=1;" parent="1" source="m6D-yFciQiQcWru1Qn-r-6" edge="1">
          <mxGeometry relative="1" as="geometry">
            <mxPoint x="390" y="550" as="targetPoint" />
            <Array as="points">
              <mxPoint x="412" y="530" />
              <mxPoint x="390" y="530" />
            </Array>
          </mxGeometry>
        </mxCell>
        <mxCell id="m6D-yFciQiQcWru1Qn-r-6" value="Выбор маршрута" style="rounded=1;whiteSpace=wrap;html=1;" parent="1" vertex="1">
          <mxGeometry x="345" y="460" width="135" height="60" as="geometry" />
        </mxCell>
        <mxCell id="m6D-yFciQiQcWru1Qn-r-34" value="" style="edgeStyle=orthogonalEdgeStyle;rounded=0;orthogonalLoop=1;jettySize=auto;html=1;" parent="1" source="m6D-yFciQiQcWru1Qn-r-7" target="m6D-yFciQiQcWru1Qn-r-8" edge="1">
          <mxGeometry relative="1" as="geometry" />
        </mxCell>
        <mxCell id="m6D-yFciQiQcWru1Qn-r-7" value="Проверка наличия данных" style="rounded=1;whiteSpace=wrap;html=1;" parent="1" vertex="1">
          <mxGeometry x="267.5" y="570" width="135" height="60" as="geometry" />
        </mxCell>
        <mxCell id="m6D-yFciQiQcWru1Qn-r-37" style="edgeStyle=orthogonalEdgeStyle;rounded=0;orthogonalLoop=1;jettySize=auto;html=1;entryX=0;entryY=0.5;entryDx=0;entryDy=0;" parent="1" source="m6D-yFciQiQcWru1Qn-r-8" target="m6D-yFciQiQcWru1Qn-r-9" edge="1">
          <mxGeometry relative="1" as="geometry" />
        </mxCell>
        <mxCell id="r8i-v04yEqecVhMNBP56-3" value="Да" style="edgeLabel;html=1;align=center;verticalAlign=middle;resizable=0;points=[];" vertex="1" connectable="0" parent="m6D-yFciQiQcWru1Qn-r-37">
          <mxGeometry x="-0.74" y="-1" relative="1" as="geometry">
            <mxPoint x="-4" y="-19" as="offset" />
          </mxGeometry>
        </mxCell>
        <mxCell id="r8i-v04yEqecVhMNBP56-4" value="Нет" style="edgeLabel;html=1;align=center;verticalAlign=middle;resizable=0;points=[];" vertex="1" connectable="0" parent="m6D-yFciQiQcWru1Qn-r-37">
          <mxGeometry x="-0.74" y="-1" relative="1" as="geometry">
            <mxPoint x="-53" y="32" as="offset" />
          </mxGeometry>
        </mxCell>
        <mxCell id="m6D-yFciQiQcWru1Qn-r-38" value="" style="edgeStyle=orthogonalEdgeStyle;rounded=0;orthogonalLoop=1;jettySize=auto;html=1;" parent="1" source="m6D-yFciQiQcWru1Qn-r-8" target="m6D-yFciQiQcWru1Qn-r-10" edge="1">
          <mxGeometry relative="1" as="geometry" />
        </mxCell>
        <mxCell id="m6D-yFciQiQcWru1Qn-r-8" value="&lt;font style=&quot;font-size: 8px;&quot;&gt;Данные присутствуют&lt;/font&gt;" style="rhombus;whiteSpace=wrap;html=1;" parent="1" vertex="1">
          <mxGeometry x="280" y="650" width="110" height="50" as="geometry" />
        </mxCell>
        <mxCell id="m6D-yFciQiQcWru1Qn-r-41" style="edgeStyle=orthogonalEdgeStyle;rounded=0;orthogonalLoop=1;jettySize=auto;html=1;entryX=0.5;entryY=0;entryDx=0;entryDy=0;" parent="1" source="m6D-yFciQiQcWru1Qn-r-9" target="m6D-yFciQiQcWru1Qn-r-1" edge="1">
          <mxGeometry relative="1" as="geometry" />
        </mxCell>
        <mxCell id="m6D-yFciQiQcWru1Qn-r-9" value="Отображение списка туристов" style="rounded=1;whiteSpace=wrap;html=1;" parent="1" vertex="1">
          <mxGeometry x="530" y="645" width="135" height="60" as="geometry" />
        </mxCell>
        <mxCell id="m6D-yFciQiQcWru1Qn-r-39" style="edgeStyle=orthogonalEdgeStyle;rounded=0;orthogonalLoop=1;jettySize=auto;html=1;entryX=0;entryY=0.5;entryDx=0;entryDy=0;" parent="1" source="m6D-yFciQiQcWru1Qn-r-10" target="m6D-yFciQiQcWru1Qn-r-12" edge="1">
          <mxGeometry relative="1" as="geometry">
            <Array as="points">
              <mxPoint x="335" y="790" />
              <mxPoint x="140" y="790" />
              <mxPoint x="140" y="390" />
            </Array>
          </mxGeometry>
        </mxCell>
        <mxCell id="m6D-yFciQiQcWru1Qn-r-10" value="Сообщиение об отсутствии данных" style="rounded=1;whiteSpace=wrap;html=1;" parent="1" vertex="1">
          <mxGeometry x="267.5" y="720" width="135" height="60" as="geometry" />
        </mxCell>
        <mxCell id="m6D-yFciQiQcWru1Qn-r-40" style="edgeStyle=orthogonalEdgeStyle;rounded=0;orthogonalLoop=1;jettySize=auto;html=1;entryX=1;entryY=0.5;entryDx=0;entryDy=0;" parent="1" source="m6D-yFciQiQcWru1Qn-r-11" target="m6D-yFciQiQcWru1Qn-r-1" edge="1">
          <mxGeometry relative="1" as="geometry">
            <Array as="points">
              <mxPoint x="700" y="390" />
              <mxPoint x="700" y="785" />
            </Array>
          </mxGeometry>
        </mxCell>
        <mxCell id="m6D-yFciQiQcWru1Qn-r-11" value="Отмена запроса" style="rounded=1;whiteSpace=wrap;html=1;" parent="1" vertex="1">
          <mxGeometry x="530" y="360" width="135" height="60" as="geometry" />
        </mxCell>
        <mxCell id="m6D-yFciQiQcWru1Qn-r-16" style="edgeStyle=orthogonalEdgeStyle;rounded=0;orthogonalLoop=1;jettySize=auto;html=1;entryX=0;entryY=0.5;entryDx=0;entryDy=0;" parent="1" source="m6D-yFciQiQcWru1Qn-r-12" target="m6D-yFciQiQcWru1Qn-r-11" edge="1">
          <mxGeometry relative="1" as="geometry" />
        </mxCell>
        <mxCell id="r8i-v04yEqecVhMNBP56-1" value="Нет" style="edgeLabel;html=1;align=center;verticalAlign=middle;resizable=0;points=[];" vertex="1" connectable="0" parent="m6D-yFciQiQcWru1Qn-r-16">
          <mxGeometry x="-0.6127" relative="1" as="geometry">
            <mxPoint x="-9" y="-15" as="offset" />
          </mxGeometry>
        </mxCell>
        <mxCell id="m6D-yFciQiQcWru1Qn-r-22" style="edgeStyle=orthogonalEdgeStyle;rounded=0;orthogonalLoop=1;jettySize=auto;html=1;" parent="1" source="m6D-yFciQiQcWru1Qn-r-12" edge="1">
          <mxGeometry relative="1" as="geometry">
            <mxPoint x="335" y="430" as="targetPoint" />
          </mxGeometry>
        </mxCell>
        <mxCell id="m6D-yFciQiQcWru1Qn-r-12" value="&lt;font style=&quot;font-size: 8px;&quot;&gt;Ввод&amp;nbsp;&lt;/font&gt;&lt;span style=&quot;font-size: 8px; background-color: transparent; color: light-dark(rgb(0, 0, 0), rgb(255, 255, 255));&quot;&gt;параметров&lt;/span&gt;" style="rhombus;whiteSpace=wrap;html=1;" parent="1" vertex="1">
          <mxGeometry x="280" y="370" width="110" height="40" as="geometry" />
        </mxCell>
        <mxCell id="m6D-yFciQiQcWru1Qn-r-21" value="" style="endArrow=none;html=1;rounded=0;strokeWidth=5;" parent="1" edge="1">
          <mxGeometry width="50" height="50" relative="1" as="geometry">
            <mxPoint x="280" y="430" as="sourcePoint" />
            <mxPoint x="390" y="430" as="targetPoint" />
          </mxGeometry>
        </mxCell>
        <mxCell id="m6D-yFciQiQcWru1Qn-r-23" value="" style="endArrow=classic;html=1;rounded=0;entryX=0.5;entryY=0;entryDx=0;entryDy=0;" parent="1" target="m6D-yFciQiQcWru1Qn-r-5" edge="1">
          <mxGeometry width="50" height="50" relative="1" as="geometry">
            <mxPoint x="280" y="430" as="sourcePoint" />
            <mxPoint x="400" y="540" as="targetPoint" />
            <Array as="points">
              <mxPoint x="280" y="450" />
            </Array>
          </mxGeometry>
        </mxCell>
        <mxCell id="m6D-yFciQiQcWru1Qn-r-27" value="" style="endArrow=classic;html=1;rounded=0;entryX=0.5;entryY=0;entryDx=0;entryDy=0;" parent="1" target="m6D-yFciQiQcWru1Qn-r-6" edge="1">
          <mxGeometry width="50" height="50" relative="1" as="geometry">
            <mxPoint x="390" y="430" as="sourcePoint" />
            <mxPoint x="400" y="540" as="targetPoint" />
            <Array as="points">
              <mxPoint x="390" y="450" />
            </Array>
          </mxGeometry>
        </mxCell>
        <mxCell id="m6D-yFciQiQcWru1Qn-r-28" value="" style="endArrow=none;html=1;rounded=0;strokeWidth=5;" parent="1" edge="1">
          <mxGeometry width="50" height="50" relative="1" as="geometry">
            <mxPoint x="280" y="550" as="sourcePoint" />
            <mxPoint x="390" y="550" as="targetPoint" />
          </mxGeometry>
        </mxCell>
        <mxCell id="m6D-yFciQiQcWru1Qn-r-32" style="edgeStyle=orthogonalEdgeStyle;rounded=0;orthogonalLoop=1;jettySize=auto;html=1;" parent="1" source="m6D-yFciQiQcWru1Qn-r-12" edge="1">
          <mxGeometry relative="1" as="geometry">
            <mxPoint x="335" y="430" as="targetPoint" />
            <mxPoint x="335" y="410" as="sourcePoint" />
            <Array as="points">
              <mxPoint x="335" y="430" />
            </Array>
          </mxGeometry>
        </mxCell>
        <mxCell id="r8i-v04yEqecVhMNBP56-2" value="Да" style="edgeLabel;html=1;align=center;verticalAlign=middle;resizable=0;points=[];" vertex="1" connectable="0" parent="m6D-yFciQiQcWru1Qn-r-32">
          <mxGeometry x="-0.3371" y="-1" relative="1" as="geometry">
            <mxPoint x="21" y="-1" as="offset" />
          </mxGeometry>
        </mxCell>
        <mxCell id="m6D-yFciQiQcWru1Qn-r-33" style="edgeStyle=orthogonalEdgeStyle;rounded=0;orthogonalLoop=1;jettySize=auto;html=1;" parent="1" edge="1">
          <mxGeometry relative="1" as="geometry">
            <mxPoint x="334.83" y="570" as="targetPoint" />
            <mxPoint x="334.83" y="550" as="sourcePoint" />
            <Array as="points">
              <mxPoint x="334.83" y="570" />
            </Array>
          </mxGeometry>
        </mxCell>
      </root>
    </mxGraphModel>
  </diagram>
</mxfile>
